<svg width="33" height="32" viewBox="0 0 33 32" fill="none" xmlns="http://www.w3.org/2000/svg">
<g clip-path="url(#clip0_1005_6432)">
<path d="M31.7422 27.3701L24.3852 20.0126C25.6789 17.9562 26.3638 15.5756 26.3607 13.1461C26.3607 6.00463 20.5713 0.216057 13.4301 0.216057C6.28884 0.216057 0.5 6.00463 0.5 13.1461C0.5 20.2879 6.28857 26.0759 13.4301 26.0759C16.0714 26.0793 18.6498 25.27 20.8154 23.7577L28.0848 31.0277C28.3249 31.2679 28.61 31.4583 28.9238 31.588C29.2376 31.7178 29.5739 31.7842 29.9135 31.7837C30.2532 31.7843 30.5897 31.7178 30.9036 31.5881C31.2175 31.4584 31.5028 31.2679 31.743 31.0277C32.2278 30.5425 32.5001 29.8847 32.4999 29.1988C32.4998 28.5129 32.2272 27.8551 31.7422 27.3701ZM13.4301 21.8868C8.60325 21.8868 4.68996 17.9737 4.68996 13.1467C4.68996 8.31957 8.60325 4.40629 13.4301 4.40629C18.2572 4.40629 22.1702 8.31957 22.1702 13.1467C22.1702 17.9737 18.2572 21.8868 13.4301 21.8868Z" fill="currentColor"/>
</g>
<defs>
<clipPath id="clip0_1005_6432">
<rect width="32" height="32" fill="white" transform="translate(0.5)"/>
</clipPath>
</defs>
</svg>
