<svg width="18" height="18" viewBox="0 0 18 18" fill="none" xmlns="http://www.w3.org/2000/svg">
<path fill-rule="evenodd" clip-rule="evenodd" d="M1.52841 8.41785C6.17904 6.32218 9.28019 4.94058 10.8319 4.27306C15.2622 2.36715 16.1828 2.03607 16.7828 2.02514C16.9148 2.02274 17.2098 2.05656 17.401 2.21698C17.5624 2.35242 17.6068 2.5354 17.628 2.66382C17.6493 2.79224 17.6757 3.08478 17.6547 3.31337C17.4146 5.92241 16.3758 12.2539 15.8473 15.176C15.6237 16.4125 15.1833 16.8271 14.7571 16.8677C13.8306 16.9558 13.1271 16.2344 12.2299 15.6261C10.8258 14.6741 10.0326 14.0815 8.66968 13.1526C7.09461 12.0791 8.11566 11.4891 9.01329 10.5248C9.2482 10.2724 13.33 6.43239 13.409 6.08404C13.4189 6.04047 13.4281 5.87807 13.3348 5.79232C13.2415 5.70657 13.1039 5.73589 13.0045 5.75921C12.8637 5.79227 10.6207 7.32566 6.27543 10.3594C5.63875 10.8116 5.06207 11.0319 4.54538 11.0203C3.97578 11.0076 2.88009 10.6872 2.06555 10.4134C1.06649 10.0775 0.272457 9.8999 0.341599 9.32945C0.377613 9.03233 0.773215 8.72846 1.52841 8.41785Z" fill="white"/>
</svg>
