<svg width="19" height="18" viewBox="0 0 19 18" fill="none" xmlns="http://www.w3.org/2000/svg">
<path fill-rule="evenodd" clip-rule="evenodd" d="M2.19523 1.69523C1 2.88981 1 4.81342 1 8.66V9.34C1 13.1866 1 15.1102 2.19523 16.3048C3.38981 17.5 5.31342 17.5 9.16 17.5H9.84C13.6866 17.5 15.6102 17.5 16.8048 16.3048C18 15.1102 18 13.1866 18 9.34V8.66C18 4.81342 18 2.88981 16.8048 1.69523C15.6102 0.5 13.6866 0.5 9.84 0.5H9.16C5.31342 0.5 3.38981 0.5 2.19523 1.69523ZM3.87692 5.73077C3.96846 10.1416 6.17323 12.7923 10.0381 12.7923H10.2572V10.2685C11.6773 10.4103 12.7509 11.4493 13.1818 12.7923H15.1885C14.6373 10.785 13.189 9.67477 12.2847 9.25108C13.189 8.728 14.4607 7.45562 14.7648 5.73077H12.9418C12.5463 7.13 11.3726 8.40238 10.2572 8.52269V5.73077H8.43423V10.6222C7.30308 10.3397 5.87638 8.96796 5.81231 5.73077H3.87692Z" fill="white"/>
</svg>
