<svg width="36" height="36" viewBox="0 0 36 36" fill="none" xmlns="http://www.w3.org/2000/svg">
    <path fill-rule="evenodd" clip-rule="evenodd"
          d="M28.5874 33.0861L24.9347 19.4253C24.0836 16.2421 21.1635 14.0196 17.8332 14.0196C14.5034 14.0196 11.5834 16.2421 10.7322 19.425L7.0791 33.0862C6.89164 33.7878 7.04098 34.5201 7.48882 35.095C7.93629 35.6703 8.61447 36 9.34862 36H26.3182C27.0524 36 27.7302 35.6703 28.178 35.0954C28.6256 34.5201 28.7752 33.7877 28.5874 33.0861ZM13.4293 20.1299L9.9233 33.2416H25.7432L22.2373 20.1299C21.7094 18.1562 19.8983 16.7776 17.8332 16.7776C15.7682 16.7776 13.957 18.1562 13.4293 20.1299Z"
          fill="currentColor"/>
    <path fill-rule="evenodd" clip-rule="evenodd"
          d="M17.8332 11.2464C20.9698 11.2464 23.5213 8.72406 23.5213 5.62341C23.5213 2.52248 20.9695 0 17.8332 0C14.697 0 12.1452 2.52276 12.1452 5.62341C12.1452 8.72406 14.697 11.2464 17.8332 11.2464ZM20.7312 5.62341C20.7312 4.04362 19.4316 2.75838 17.8332 2.75838C16.2353 2.75838 14.9353 4.04362 14.9353 5.62341C14.9353 7.2032 16.2353 8.48843 17.8332 8.48843C19.4312 8.48843 20.7312 7.2032 20.7312 5.62341Z"
          fill="currentColor"/>
    <path class="fill" d="M24.0062 5.62341C24.0062 8.72406 21.4537 11.2465 18.3164 11.2465C15.1789 11.2465 12.6266 8.72406 12.6266 5.62341C12.6266 2.52248 15.1792 0 18.3164 0C21.4537 0 24.0062 2.52248 24.0062 5.62341Z"
          fill="currentColor"/>
    <path class="fill" d="M25.4197 19.425L29.0739 33.0861C29.2615 33.7877 29.1122 34.5201 28.6641 35.095C28.2161 35.67 27.5381 36 26.8037 36H9.82882C9.09443 36 8.41641 35.67 7.96843 35.095C7.52045 34.5201 7.37106 33.7878 7.55896 33.0862L11.2128 19.425C12.0642 16.2421 14.9855 14.0193 18.3164 14.0193C21.6474 14.0193 24.5684 16.2421 25.4197 19.425Z"
          fill="currentColor"/>

</svg>