<svg width="40" height="40" viewBox="0 0 40 40" fill="none" xmlns="http://www.w3.org/2000/svg">
<path d="M20.5 2C10.2991 2 2 10.2991 2 20.5C2 30.7009 10.2991 39 20.5 39C30.7009 39 39 30.7009 39 20.5C39 10.2991 30.7009 2 20.5 2ZM20.5 35.6364C12.1537 35.6364 5.36364 28.8462 5.36364 20.5C5.36364 12.1538 12.1537 5.36364 20.5 5.36364C28.8463 5.36364 35.6364 12.1538 35.6364 20.5C35.6364 28.8462 28.8462 35.6364 20.5 35.6364Z" fill="black"/>
<path d="M27.4373 13.9593L17.9233 23.4732L13.5629 19.1127C12.9062 18.456 11.8413 18.4559 11.1845 19.1125C10.5277 19.7694 10.5277 20.8342 11.1845 21.491L16.7341 27.0407C17.0494 27.3562 17.4772 27.5334 17.9232 27.5334H17.9233C18.3693 27.5334 18.7971 27.3561 19.1125 27.0409L29.8157 16.3379C30.4725 15.6811 30.4725 14.6163 29.8157 13.9595C29.1589 13.3027 28.0941 13.3025 27.4373 13.9593Z" fill="black"/>
</svg>
