<svg width="20" height="20" viewBox="0 0 20 20" fill="none" xmlns="http://www.w3.org/2000/svg">
<path d="M15.4565 1.66669H7.8765C7.11383 1.66757 6.38266 1.97093 5.84337 2.51022C5.30408 3.04951 5.00072 3.78069 4.99984 4.54335V5.00002H4.54317C3.7805 5.0009 3.04932 5.30426 2.51003 5.84355C1.97075 6.38284 1.66739 7.11402 1.6665 7.87669V15.4567C1.66739 16.2194 1.97075 16.9505 2.51003 17.4898C3.04932 18.0291 3.7805 18.3325 4.54317 18.3334H12.1232C13.5798 18.3334 14.7748 17.24 14.9615 15.8334H15.4565C16.2192 15.8325 16.9504 15.5291 17.4896 14.9898C18.0289 14.4505 18.3323 13.7194 18.3332 12.9567V4.54335C18.3323 3.78069 18.0289 3.04951 17.4896 2.51022C16.9504 1.97093 16.2192 1.66757 15.4565 1.66669ZM16.6665 12.9567C16.6665 13.6234 16.124 14.1667 15.4565 14.1667H14.9998V7.87669C14.999 7.11402 14.6956 6.38284 14.1563 5.84355C13.617 5.30426 12.8858 5.0009 12.1232 5.00002H6.6665V4.54335C6.6665 3.87669 7.209 3.33335 7.8765 3.33335H15.4565C16.1232 3.33335 16.6665 3.87585 16.6665 4.54335V12.9567Z" fill="black"/>
</svg>
