<svg width="44" height="44" viewBox="0 0 44 44" fill="none" xmlns="http://www.w3.org/2000/svg">
<path fill-rule="evenodd" clip-rule="evenodd" d="M36.64 14.7038L27.4569 7.35641C25.979 6.15724 24.1119 5.5 22.1833 5.5C20.2547 5.5 18.3876 6.15724 16.9097 7.35641L7.72661 14.7038C6.07276 16.0288 5.1333 18.0352 5.1333 20.129V31.5882C5.1333 35.3089 8.08977 38.5 11.9533 38.5H15.3633C16.2677 38.5 17.135 38.1523 17.7745 37.5335C18.414 36.9146 18.7733 36.0752 18.7733 35.2V29.8342C18.7733 27.7421 20.3965 26.2208 22.1833 26.2208C23.9701 26.2208 25.5933 27.7421 25.5933 29.8342V35.2C25.5933 36.0752 25.9526 36.9146 26.5921 37.5335C27.2316 38.1523 28.0989 38.5 29.0033 38.5H32.4133C36.2768 38.5 39.2333 35.3089 39.2333 31.5865V20.129C39.2333 18.0352 38.2955 16.0288 36.64 14.7038Z" fill="currentColor"/>
</svg>
