<svg width="18" height="18" viewBox="0 0 18 18" fill="none" xmlns="http://www.w3.org/2000/svg">
<path d="M17.5957 12.164L11.4504 1.80347C10.3465 -0.0598145 7.65351 -0.0598145 6.54609 1.80347L0.404289 12.164C-0.724226 14.0625 0.646867 16.4671 2.85468 16.4671H15.1453C17.3531 16.4671 18.7242 14.0625 17.5957 12.164ZM8.99999 14.175C8.27226 14.175 7.68163 13.5843 7.68163 12.8566C7.68163 12.1289 8.27226 11.5382 8.99999 11.5382C9.72773 11.5382 10.3184 12.1289 10.3184 12.8566C10.3184 13.5843 9.72773 14.175 8.99999 14.175ZM10.3535 5.78315L10.1918 9.59409C10.1637 10.2515 9.6082 10.7613 8.95077 10.7332C8.33202 10.7085 7.83632 10.2128 7.81171 9.59409L7.64999 5.78315C7.61132 5.03433 8.18788 4.398 8.9332 4.35933C9.68202 4.32065 10.3184 4.89722 10.357 5.64253C10.357 5.69175 10.357 5.73745 10.3535 5.78315Z" fill="white"/>
</svg>
