<svg width="64" height="64" viewBox="0 0 64 64" fill="none" xmlns="http://www.w3.org/2000/svg">
<g clip-path="url(#clip0_486_7277)">
<path d="M2.64673 32.775C2.64673 15.8782 16.4082 2.1311 33.3225 2.1311C50.2368 2.1311 64 15.8782 64 32.775C64 49.6717 50.2385 63.4188 33.3225 63.4188C16.4064 63.4188 2.64673 49.6717 2.64673 32.775ZM3.82525 32.775C3.82525 49.0232 17.0573 62.2415 33.3225 62.2415C49.5876 62.2415 62.8214 49.0232 62.8214 32.775C62.8214 16.5267 49.5876 3.30841 33.3225 3.30841C17.0573 3.30841 3.82525 16.5267 3.82525 32.775Z" fill="currentColor"/>
<path d="M15.5854 37.9469C15.5854 26.0399 25.2837 16.3517 37.2031 16.3517C49.1226 16.3517 58.8208 26.0399 58.8208 37.9469C58.8208 49.8539 49.1226 59.5421 37.2031 59.5421C25.2837 59.5421 15.5854 49.8539 15.5854 37.9469ZM16.764 37.9469C16.764 49.2054 25.9329 58.3648 37.2031 58.3648C48.4734 58.3648 57.6423 49.2054 57.6423 37.9469C57.6423 26.6884 48.4734 17.529 37.2031 17.529C25.9329 17.529 16.764 26.6884 16.764 37.9469Z" fill="currentColor"/>
<path d="M0 15.3244C0 23.3547 6.51676 29.8665 14.5572 29.8665C22.5977 29.8665 29.1163 23.3547 29.1163 15.3244C29.1163 7.2941 22.5995 0.780518 14.5572 0.780518C6.51497 0.780518 0 7.29232 0 15.3244Z" fill="currentColor"/>
</g>
<defs>
<clipPath id="clip0_486_7277">
<rect width="64" height="64" fill="white"/>
</clipPath>
</defs>
</svg>
