<svg width="64" height="64" viewBox="0 0 64 64" fill="none" xmlns="http://www.w3.org/2000/svg">
<path d="M64 20.4875L61.63 20.0674C60.5461 19.8755 59.7112 19.0043 59.5711 17.9152L59.2548 15.5296L57.7042 17.3707C56.9989 18.2108 55.8268 18.5012 54.8104 18.0811L52.5856 17.1632L53.4102 19.4243C53.7835 20.4563 53.4465 21.6128 52.5752 22.287L50.6668 23.7546L53.0368 24.1747C54.1051 24.3614 54.9245 25.2171 55.0853 26.2854C54.8415 27.0996 54.5666 27.8983 54.2555 28.671C48.3434 39.909 35.368 45.3077 23.1705 41.5063C10.7864 37.648 3.11626 25.5438 4.92617 12.724C4.9521 12.5269 4.83284 12.3454 4.65133 12.2884C4.63059 12.2832 4.60984 12.278 4.5891 12.278C4.37129 12.2469 4.16904 12.3973 4.13792 12.6151C2.27096 25.8239 10.1744 38.2962 22.932 42.2739C33.0188 45.4166 43.6138 42.4398 50.563 35.1639C44.1116 43.7208 33.1381 48.3622 21.9415 46.1323C12.3785 44.2342 4.48536 37.6946 0.839596 28.6502C0.751433 28.4272 0.497337 28.3235 0.274338 28.4117C0.0513401 28.4998 -0.0575825 28.7539 0.0305796 28.9718C3.79562 38.291 11.9221 45.0225 21.7703 46.9828C34.7924 49.5706 47.5448 43.171 53.6021 32.0989C47.9078 44.6698 34.3205 52.4281 20.0693 50.0996C13.3534 49.0001 7.31175 45.8418 2.60285 40.9566C2.42134 40.7647 2.13091 40.7647 1.93903 40.9463C1.75233 41.1278 1.74717 41.4234 1.92868 41.6101C6.77759 46.6405 12.9956 49.8973 19.9137 51.0278C36.3015 53.709 51.8647 43.4615 56.1795 27.7997L56.9574 26.8766C57.6627 26.0365 58.8347 25.7461 59.8512 26.1661L62.076 27.0841L61.2514 24.823C60.878 23.7909 61.2151 22.6345 62.0864 21.9603L63.9948 20.4926L64 20.4875Z" fill="currentColor"/>
</svg>
