<svg width="66" height="64" viewBox="0 0 66 64" fill="none" xmlns="http://www.w3.org/2000/svg">
<path d="M32.7358 31.3892L33.8231 0H31.3604L32.4438 31.3892H32.7358Z" fill="currentColor"/>
<path d="M33.5925 31.8079L54.6043 8.45905L52.7179 6.87634L33.3735 31.6197L33.5925 31.8079Z" fill="currentColor"/>
<path d="M33.9804 32.68L65.0888 28.2968L64.6585 25.8728L33.9304 32.3919L33.9804 32.68Z" fill="currentColor"/>
<path d="M33.7192 33.5943L60.3672 50.232L61.5927 48.0999L33.8652 33.3407L33.7192 33.5943Z" fill="currentColor"/>
<path d="M32.9277 34.1243L42.6441 63.9999L44.9608 63.1548L33.2005 34.0244L32.9277 34.1243Z" fill="currentColor"/>
<path d="M31.9786 34.0244L20.2222 63.1548L22.5389 63.9999L32.2552 34.1243L31.9786 34.0244Z" fill="currentColor"/>
<path d="M31.3257 33.3407L3.58667 48.0999L4.81994 50.232L31.4679 33.5943L31.3257 33.3407Z" fill="currentColor"/>
<path d="M31.2603 32.3957L0.520697 25.8728L0.0942383 28.2968L31.2065 32.6838L31.2603 32.3957Z" fill="currentColor"/>
<path d="M31.8138 31.6274L12.4618 6.87634L10.5715 8.45905L31.5948 31.8118L31.8138 31.6274Z" fill="currentColor"/>
<path d="M29.8198 32.7721C29.8198 34.301 31.0608 35.5419 32.5899 35.5419C34.119 35.5419 35.3561 34.301 35.3561 32.7721C35.3561 31.2432 34.1151 30.0062 32.5899 30.0062C31.0646 30.0062 29.8198 31.247 29.8198 32.7721Z" fill="currentColor"/>
</svg>
